<svg width="23" height="24" viewBox="0 0 23 24" fill="none" xmlns="http://www.w3.org/2000/svg">
<g clip-path="url(#clip0_0_186)">
<path d="M15.9474 15.9458C16.1069 15.9458 16.2664 16.0255 16.3461 16.185C16.984 17.1418 17.6218 18.0986 18.2597 19.0554C18.4989 19.3744 18.7381 19.6136 18.8976 19.8528L18.9773 19.9325C19.9341 20.8096 20.891 21.7664 21.768 22.6435C21.8478 22.7232 21.9275 22.8029 21.8478 22.8827C21.8478 22.9624 21.768 23.1219 21.6086 23.1219C21.5288 23.1219 21.3694 23.1219 21.2896 23.1219H18.4192H16.2664H13.3959H11.9607H11.6418H11.4026H11.1634H10.366H8.77135H6.37932H3.9873H3.03049H2.39261H1.03713C0.877663 23.1219 0.877663 23.1219 0.797928 23.0421C0.797928 22.8827 0.797928 22.8827 0.797928 22.8029C1.1966 22.0056 1.675 21.2082 2.15341 20.3312C2.15341 20.3312 2.23314 20.1717 2.39261 20.1717C2.39261 20.1717 2.39261 20.1717 2.47235 20.1717L4.86437 20.4906C4.94411 20.4906 5.02384 20.4906 5.10358 20.4906C5.58198 20.4906 6.06039 20.2514 6.37932 19.9325C6.93746 19.3744 7.4956 18.7365 8.05374 18.1783C8.21321 18.0189 8.29295 18.0189 8.45241 18.0189C9.72816 18.0189 10.9242 18.0189 12.1999 18.0189C12.4391 18.0189 12.6783 17.9391 12.8378 17.8594C13.2365 17.6202 13.7149 17.381 14.1135 17.0621C14.5919 16.7431 15.1501 16.4242 15.6285 16.1052C15.788 16.0255 15.8677 15.9458 15.9474 15.9458ZM15.9474 15.1484C15.7082 15.1484 15.469 15.2282 15.2298 15.3079C14.273 15.866 13.3959 16.4242 12.4391 16.9823C12.3594 17.0621 12.2797 17.0621 12.1999 17.0621C10.9242 17.0621 9.72816 17.0621 8.45241 17.0621C8.05374 17.0621 7.73481 17.2215 7.4956 17.4607C6.93746 18.0189 6.37932 18.6567 5.82118 19.2149C5.58198 19.4541 5.34278 19.5338 5.10358 19.5338C5.02384 19.5338 5.02384 19.5338 4.94411 19.5338C4.14677 19.4541 3.34942 19.2946 2.55208 19.2149C2.47235 19.2149 2.47235 19.2149 2.39261 19.2149C1.99394 19.2149 1.675 19.3744 1.4358 19.773C1.03713 20.7298 0.558726 21.5272 0.160055 22.4043C-0.079148 22.8029 0.00058619 23.2016 0.239789 23.5205C0.478992 23.8395 0.718194 23.9989 1.11687 23.9989C1.59527 23.9989 1.99394 23.9989 2.47235 23.9989C3.11022 23.9989 3.66836 23.9989 4.30623 23.9989C5.10358 23.9989 5.90092 23.9989 6.69826 23.9989C8.29294 23.9989 9.88763 23.9989 11.4026 23.9989C11.562 23.9989 11.7215 23.9989 11.881 23.9989C11.9607 23.9989 12.1202 23.9989 12.1999 23.9989C13.6351 23.9989 14.9906 23.9989 16.4258 23.9989C17.1434 23.9989 17.861 23.9989 18.5787 23.9989C19.5355 23.9989 20.4923 23.9989 21.4491 23.9989C21.6086 23.9989 21.6883 23.9989 21.8478 23.9989C22.3262 23.9192 22.7248 23.5205 22.8046 23.0421C22.8046 22.7232 22.7248 22.4043 22.4856 22.165C21.5288 21.288 20.572 20.3312 19.6949 19.4541C19.4557 19.2149 19.2165 18.9757 19.0571 18.7365C18.4192 17.7797 17.7813 16.8229 17.1434 15.866C16.8245 15.3876 16.4258 15.1484 15.9474 15.1484Z" fill="black"/>
<path d="M15.9474 15.9458C16.1069 15.9458 16.2664 16.0255 16.3461 16.185C16.984 17.1418 17.6218 18.0986 18.2597 19.0554C18.4989 19.3744 18.7381 19.6136 18.8976 19.8528L18.9773 19.9325C19.9341 20.8096 20.891 21.7664 21.768 22.6435C21.8478 22.7232 21.9275 22.8029 21.8478 22.8827C21.8478 22.9624 21.768 23.1219 21.6086 23.1219C21.5288 23.1219 21.3694 23.1219 21.2896 23.1219H18.4192H16.2664H13.3959H11.9607H11.6418H11.4026H11.1634H10.366H8.77135H6.37932H3.9873H3.03049H2.39261H1.03713C0.877663 23.1219 0.877663 23.1219 0.797928 23.0421C0.797928 22.8827 0.797928 22.8827 0.797928 22.8029C1.1966 22.0056 1.675 21.2082 2.15341 20.3312C2.15341 20.3312 2.23314 20.1717 2.39261 20.1717C2.39261 20.1717 2.39261 20.1717 2.47235 20.1717L4.86437 20.4906C4.94411 20.4906 5.02384 20.4906 5.10358 20.4906C5.58198 20.4906 6.06039 20.2514 6.37932 19.9325C6.93746 19.3744 7.4956 18.7365 8.05374 18.1783C8.21321 18.0189 8.29295 18.0189 8.45241 18.0189C9.72816 18.0189 10.9242 18.0189 12.1999 18.0189C12.4391 18.0189 12.6783 17.9391 12.8378 17.8594C13.2365 17.6202 13.7149 17.381 14.1135 17.0621C14.5919 16.7431 15.1501 16.4242 15.6285 16.1052C15.788 16.0255 15.8677 15.9458 15.9474 15.9458ZM15.9474 15.1484C15.7082 15.1484 15.469 15.2282 15.2298 15.3079C14.273 15.866 13.3959 16.4242 12.4391 16.9823C12.3594 17.0621 12.2797 17.0621 12.1999 17.0621C10.9242 17.0621 9.72816 17.0621 8.45241 17.0621C8.05374 17.0621 7.73481 17.2215 7.4956 17.4607C6.93746 18.0189 6.37932 18.6567 5.82118 19.2149C5.58198 19.4541 5.34278 19.5338 5.10358 19.5338C5.02384 19.5338 5.02384 19.5338 4.94411 19.5338C4.14677 19.4541 3.34942 19.2946 2.55208 19.2149C2.47235 19.2149 2.47235 19.2149 2.39261 19.2149C1.99394 19.2149 1.675 19.3744 1.4358 19.773C1.03713 20.7298 0.558726 21.5272 0.160055 22.4043C-0.079148 22.8029 0.00058619 23.2016 0.239789 23.5205C0.478992 23.8395 0.718194 23.9989 1.11687 23.9989C1.59527 23.9989 1.99394 23.9989 2.47235 23.9989C3.11022 23.9989 3.66836 23.9989 4.30623 23.9989C5.10358 23.9989 5.90092 23.9989 6.69826 23.9989C8.29294 23.9989 9.88763 23.9989 11.4026 23.9989C11.562 23.9989 11.7215 23.9989 11.881 23.9989C11.9607 23.9989 12.1202 23.9989 12.1999 23.9989C13.6351 23.9989 14.9906 23.9989 16.4258 23.9989C17.1434 23.9989 17.861 23.9989 18.5787 23.9989C19.5355 23.9989 20.4923 23.9989 21.4491 23.9989C21.6086 23.9989 21.6883 23.9989 21.8478 23.9989C22.3262 23.9192 22.7248 23.5205 22.8046 23.0421C22.8046 22.7232 22.7248 22.4043 22.4856 22.165C21.5288 21.288 20.572 20.3312 19.6949 19.4541C19.4557 19.2149 19.2165 18.9757 19.0571 18.7365C18.4192 17.7797 17.7813 16.8229 17.1434 15.866C16.8245 15.3876 16.4258 15.1484 15.9474 15.1484Z" fill="#4D5051"/>
<path d="M10.1278 22.7209H1.27734C1.67601 22.0033 2.07469 21.2059 2.47336 20.4883L4.78565 20.8073C4.86538 20.8073 5.02485 20.8073 5.10459 20.8073C5.74246 20.8073 6.22087 20.5681 6.69927 20.1694C7.25741 19.6112 7.81555 18.9734 8.37369 18.4152L8.45342 18.3355C9.72917 18.3355 10.9252 18.3355 12.2009 18.3355C12.5199 18.3355 12.8388 18.2558 13.078 18.0963C13.078 18.0963 15.3106 16.7408 15.8687 16.4219H15.9484C16.0282 16.4219 16.0282 16.4219 16.0282 16.5016C16.666 17.4584 17.3039 18.4152 17.9418 19.372C18.181 19.691 18.4202 20.0099 18.6594 20.2491L18.7391 20.3289C19.6162 21.2059 20.4933 22.0033 21.3704 22.8803H18.8986L10.1278 22.7209Z" fill="#D1D1D2"/>
<path d="M9.40873 8.21401C9.329 8.37348 9.329 8.45321 9.24926 8.61268C9.01006 9.33029 8.85059 10.0479 8.61139 10.7655C8.61139 10.8452 8.53165 11.0047 8.53165 11.0844C8.53165 11.1642 8.53166 11.2439 8.61139 11.2439C9.08979 11.4831 9.64793 11.6426 10.1263 11.8818C10.9237 12.2007 11.4021 12.8386 11.5616 13.7157C11.721 14.5927 11.8805 15.4698 12.04 16.4266C12.04 16.5064 12.04 16.5064 11.9602 16.5064C11.2426 16.5064 10.6047 16.5064 9.88714 16.5064C9.8074 16.5064 9.8074 16.5064 9.72767 16.4266C9.5682 15.6293 9.48847 14.9117 9.329 14.1143C9.329 14.0346 9.24926 14.0346 9.24926 13.9549C8.77086 13.7954 8.37219 13.6359 7.89378 13.3967C7.81405 13.3967 7.81405 13.3967 7.81405 13.4765C7.65458 13.9549 7.49511 14.513 7.33564 14.9914C7.09644 15.709 6.93697 16.3469 6.69777 17.0645C6.69777 17.1442 6.61803 17.224 6.61803 17.3834C6.61803 17.6226 6.45857 17.7821 6.2991 17.8618C5.98016 18.1808 5.66122 18.4997 5.42202 18.8187C5.26255 18.9781 5.18282 18.9781 4.94362 18.9781C4.62468 18.8984 4.30574 18.8984 3.9868 18.8187C3.90707 18.8187 3.90707 18.7389 3.90707 18.6592C4.14627 17.8618 4.38548 17.1442 4.62468 16.3469C4.86388 15.6293 5.02335 14.9914 5.26255 14.2738C5.42202 13.7157 5.58149 13.0778 5.82069 12.5197C5.82069 12.4399 5.82069 12.4399 5.74096 12.3602C5.26255 12.121 4.94362 11.6426 4.78415 11.0844C4.70441 10.7655 4.78415 10.4466 4.86388 10.1276C5.02335 9.48976 5.18282 8.77215 5.34229 8.13427C5.34229 7.97481 5.42202 7.81534 5.42202 7.65587H5.34229C5.10308 7.81534 4.86388 7.97481 4.78415 8.21401C4.38548 8.93162 3.9868 9.56949 3.66787 10.2074C3.42866 10.6858 2.95026 10.8452 2.47185 10.6858C2.07318 10.5263 1.83398 10.0479 1.91371 9.56949C1.91371 9.41002 1.99345 9.33029 2.07318 9.17082C2.39212 8.53295 2.71106 7.97481 3.02999 7.33693C3.34893 6.85853 3.66787 6.38012 4.22601 6.14092C4.86388 5.74225 5.58149 5.34358 6.2991 5.02464C6.2991 4.94491 6.45857 4.86517 6.61803 4.78544C6.93697 4.7057 7.17617 4.78544 7.41538 4.78544C7.81405 4.78544 8.21272 4.86517 8.61139 4.86517C8.85059 4.86517 9.08979 4.94491 9.329 5.18411C9.64793 5.50305 9.96687 5.82198 10.2061 6.22065C10.4453 6.61932 10.7642 6.93826 11.0034 7.33693C11.1629 7.57613 11.3224 7.65587 11.5616 7.65587C11.8805 7.65587 12.1994 7.7356 12.5184 7.81534C12.6778 7.81534 12.6778 7.81534 12.5981 7.7356C12.5981 7.65587 12.5981 7.4964 12.5981 7.41667C12.5981 7.2572 12.8373 7.09773 12.9968 7.09773C13.1562 7.09773 13.3157 7.17746 13.3954 7.41667C13.3954 7.57614 13.4752 7.7356 13.4752 7.81534C13.4752 7.89507 13.5549 7.97481 13.6346 8.05454C14.1928 8.29374 14.3523 9.01135 14.0333 9.48976C13.9536 9.56949 13.8738 9.64922 13.7941 9.72896C13.7144 9.80869 13.7144 9.80869 13.7144 9.88843C13.7941 10.2074 13.7941 10.606 13.8738 10.925C13.9536 11.3236 13.9536 11.7223 14.0333 12.121C14.1131 12.5994 14.1928 13.0778 14.1928 13.5562C14.2725 14.0346 14.3523 14.5927 14.3523 15.0712C14.3523 15.1509 14.3523 15.1509 14.2725 15.2306C14.1131 15.3901 13.8738 15.4698 13.7144 15.6293C13.6346 15.709 13.6346 15.6293 13.6346 15.5496C13.5549 15.0712 13.5549 14.6725 13.4752 14.1941C13.3954 13.7157 13.3157 13.2373 13.3157 12.7589C13.236 12.2007 13.1562 11.5628 13.0765 11.0047C12.9968 10.6858 12.9968 10.2871 12.917 9.96816C12.917 9.88843 12.8373 9.88843 12.8373 9.88843C12.2792 9.80869 11.721 9.72896 11.1629 9.64923C10.525 9.56949 10.0466 9.25055 9.64793 8.77215C9.5682 8.45321 9.48847 8.37348 9.40873 8.21401Z" fill="#4D5051"/>
<path d="M8.76953 0.400391C9.74447 0.400391 10.5222 1.17747 10.5225 2.15234C10.5225 3.12744 9.74463 3.90527 8.76953 3.90527C7.79466 3.90502 7.01758 3.12728 7.01758 2.15234C7.01783 1.17763 7.79482 0.400646 8.76953 0.400391Z" stroke="#4D5051" stroke-width="0.8"/>
<path d="M7.92188 2.15186C7.92188 1.68121 8.2984 1.30469 8.76905 1.30469C9.2397 1.30469 9.61623 1.68121 9.61623 2.15186C9.61623 2.62252 9.2397 2.99904 8.76905 2.99904C8.2984 2.99904 7.92188 2.62252 7.92188 2.15186Z" fill="#D1D1D2"/>
<path d="M6.58282 7.4609C6.68003 6.97486 7.10679 6.625 7.60245 6.625C8.29899 6.625 8.79857 7.29645 8.59842 7.96361L8.07912 9.69459C7.95797 10.0984 7.58626 10.375 7.16463 10.375C6.56212 10.375 6.11024 9.82379 6.2284 9.23299L6.58282 7.4609Z" fill="white"/>
</g>
<defs>
<clipPath id="clip0_0_186">
<rect width="22.804" height="24" fill="white"/>
</clipPath>
</defs>
</svg>
