<svg width="25" height="25" viewBox="0 0 25 25" fill="none" xmlns="http://www.w3.org/2000/svg">
<g clip-path="url(#clip0_0_161)">
<path d="M12.4467 6.46875C16.1811 6.46875 18.7745 8.91773 19.0857 12.4892C19.2932 15.4483 18.4633 18.2034 16.5961 20.5504C15.8699 21.4687 14.9363 22.183 13.7953 22.4892C12.2392 22.9994 10.8907 22.6932 9.54214 21.7749C8.08986 20.7545 7.15625 19.3259 6.53384 17.6932C5.8077 15.7545 5.39276 13.7136 5.91144 11.6728C6.63758 8.30548 9.1272 6.46875 12.4467 6.46875Z" stroke="white" stroke-width="0.7" stroke-miterlimit="10"/>
<path d="M12.4487 21.6759C11.6189 21.6759 10.8927 21.3697 10.0628 20.8595C8.92176 20.0432 8.09189 18.8187 7.46948 17.2881C6.74334 15.4514 6.53587 13.7167 6.84707 11.982C7.46948 9.12484 9.54417 7.49219 12.4487 7.49219C15.6645 7.49219 17.9467 9.63504 18.1541 12.6963C18.3616 15.3493 17.6355 17.6963 15.9757 19.7371C15.3533 20.5534 14.5234 21.1657 13.5898 21.4718C13.2786 21.5738 12.8637 21.6759 12.4487 21.6759Z" fill="#CCE5FF"/>
<path d="M12.4493 13.5108C13.4866 13.5108 14.4202 13.5108 15.4576 13.5108C15.9763 13.5108 16.1837 13.3068 16.1837 12.7966C16.1837 12.3884 16.1837 11.9802 16.1837 11.6741C16.1837 10.5517 15.2501 9.53125 14.0053 9.53125C12.968 9.53125 11.9306 9.53125 10.8933 9.53125C9.95966 9.53125 9.02605 10.2455 8.81858 11.1639C8.71484 11.5721 8.71484 12.1843 8.71484 12.7966C8.71484 13.3068 8.92231 13.5108 9.44099 13.5108C10.4783 13.5108 11.5157 13.5108 12.4493 13.5108Z" fill="#0071F2"/>
<path d="M13.0686 5.85714C12.6537 5.85714 12.3425 5.85714 12.0312 5.85714V5.7551C12.0312 5.04082 12.0312 4.32653 12.0312 3.5102C12.0312 3.30612 12.135 3.10204 12.3425 3C12.4462 3 12.6537 3 12.8611 3.10204C12.9649 3.20408 13.0686 3.30612 13.0686 3.40816C13.0686 4.22449 13.0686 5.04082 13.0686 5.85714Z" fill="white"/>
<path d="M6.65764 17.2951C6.55391 16.887 6.43153 16.5697 6.3278 16.2636L6.22407 16.1615C5.80913 16.0595 6.3278 16.1615 5.91286 16.0595C4.25311 15.7533 1.65975 15.3452 0 15.0391L0.622407 16.2636C0.93361 16.2636 2.07469 16.4676 2.38589 16.5697C2.07469 16.8758 1.86722 17.284 1.97095 17.7942C1.97095 18.2023 2.17842 18.6105 2.48963 19.0187C3.0083 19.5289 3.83817 19.7329 4.56432 19.4268C4.87552 19.2227 5.18672 19.0187 5.39419 18.7125C5.70539 18.2023 5.70539 17.6921 5.49793 17.1819C6.12033 17.1819 5.82777 17.1931 6.65764 17.2951Z" fill="white"/>
<path d="M3.73395 18.4051C4.13499 18.4051 4.46009 18.0853 4.46009 17.6908C4.46009 17.2964 4.13499 16.9766 3.73395 16.9766C3.33292 16.9766 3.00781 17.2964 3.00781 17.6908C3.00781 18.0853 3.33292 18.4051 3.73395 18.4051Z" fill="#0071F2"/>
<path d="M18.1523 17.284C18.2561 16.8758 18.4635 16.5697 18.5673 16.2636L18.671 16.1615C19.086 16.0595 18.5673 16.1615 18.9822 16.0595C20.642 15.7533 23.2353 15.3452 24.8951 15.0391L24.2727 16.2636C23.9615 16.3656 22.8204 16.5697 22.5092 16.5697C22.8204 16.9778 23.0279 17.284 23.0279 17.7942C23.0279 18.2023 22.8204 18.6105 22.5092 19.0187C21.9905 19.5289 21.1606 19.7329 20.4345 19.4268C20.1233 19.2227 19.8121 19.0187 19.6046 18.7125C19.2934 18.2023 19.2934 17.6921 19.5009 17.1819C18.7747 17.1819 18.9822 17.1819 18.1523 17.284Z" fill="white"/>
<path d="M21.2652 18.4051C21.6662 18.4051 21.9913 18.0853 21.9913 17.6908C21.9913 17.2964 21.6662 16.9766 21.2652 16.9766C20.8642 16.9766 20.5391 17.2964 20.5391 17.6908C20.5391 18.0853 20.8642 18.4051 21.2652 18.4051Z" fill="#0071F2"/>
<path d="M5.39586 10.3438C4.87719 10.3438 4.35852 10.3438 3.83984 10.3438L4.15105 10.854L4.46225 11.3642C4.98092 11.3642 5.4996 11.3642 6.01827 11.3642C6.22574 11.058 6.32947 10.6499 6.32947 10.3438C6.01827 10.3438 5.70706 10.3438 5.39586 10.3438Z" fill="white"/>
<path d="M19.6072 10.3438C20.1259 10.3438 20.6446 10.3438 21.1632 10.3438L20.852 10.956L20.5408 11.4662C20.0222 11.4662 19.5035 11.4662 18.9848 11.4662C18.8811 11.058 18.8811 10.7519 18.7773 10.3438C18.9848 10.3437 19.296 10.3438 19.6072 10.3438Z" fill="white"/>
</g>
<defs>
<clipPath id="clip0_0_161">
<rect width="25" height="25" fill="white"/>
</clipPath>
</defs>
</svg>
