<svg width="23" height="23" viewBox="0 0 23 23" fill="none" xmlns="http://www.w3.org/2000/svg">
<path d="M8.16455 4.5C8.16455 2.84315 9.5077 1.5 11.1646 1.5H16.6646C18.3214 1.5 19.6646 2.84315 19.6646 4.5V19.5H11.5157C9.66491 19.5 8.16455 17.9996 8.16455 16.1489V4.5Z" fill="#D1D1D2"/>
<path d="M10.9066 0.806641H16.849C18.8017 0.806641 20.3851 2.39005 20.3851 4.34277V21.0215H10.9066C8.95389 21.0215 7.37048 19.4381 7.37048 17.4854V4.34277C7.37048 2.39005 8.9539 0.806641 10.9066 0.806641Z" stroke="#4D5051" stroke-width="0.785714"/>
<path d="M3.14075 11.7207C3.14075 8.37572 5.85241 5.66406 9.19741 5.66406C12.5424 5.66406 15.2541 8.37573 15.2541 11.7207V18.9906C15.2541 19.2851 15.0154 19.5237 14.721 19.5237H3.67381C3.37941 19.5237 3.14075 19.2851 3.14075 18.9906V11.7207Z" fill="#D1D1D2"/>
<path d="M9.19983 4.6748C12.9921 4.6748 16.0669 7.74872 16.067 11.541V20.2832C16.067 20.4071 15.9663 20.5077 15.8424 20.5078H2.55725C2.43353 20.5076 2.33362 20.407 2.33362 20.2832V11.541C2.33369 7.74877 5.40758 4.67488 9.19983 4.6748Z" stroke="#4D5051" stroke-width="0.833333"/>
<path d="M9.20105 14.1895C10.4144 14.1896 11.3983 15.1733 11.3983 16.3867V20.5088C11.3983 20.7772 11.1804 20.9951 10.912 20.9951H7.49011C7.22168 20.9951 7.00384 20.7772 7.00378 20.5088V16.3867C7.00378 15.1732 7.98756 14.1895 9.20105 14.1895Z" fill="white" stroke="#4D5051" stroke-width="0.972222"/>
<path d="M0.833008 20.5029H22.167C22.3969 20.5031 22.5828 20.6891 22.583 20.9189V22.1689H0.416992V20.9189C0.417168 20.6891 0.603147 20.5031 0.833008 20.5029Z" fill="#D1D1D2" stroke="#4D5051" stroke-width="0.833333"/>
</svg>
