<svg width="24" height="23" viewBox="0 0 24 23" fill="none" xmlns="http://www.w3.org/2000/svg">
<g clip-path="url(#clip0_0_199)">
<path d="M4.34304 21.8298H3.25707C2.60549 21.8298 2.0625 21.2868 2.0625 20.6352V18.7891H5.64621V20.6352C5.53761 21.2868 4.99463 21.8298 4.34304 21.8298Z" fill="white" stroke="#4D5051" stroke-width="0.8" stroke-miterlimit="10"/>
<path d="M20.8509 21.8298H19.7649C19.1133 21.8298 18.5703 21.2868 18.5703 20.6352V18.7891H22.154V20.6352C22.154 21.2868 21.611 21.8298 20.8509 21.8298Z" fill="white" stroke="#4D5051" stroke-width="0.8" stroke-miterlimit="10"/>
<path d="M17.1575 4.12659C18.3521 4.12659 19.4381 4.88677 19.7639 6.08134L20.7412 9.33926H3.14847L3.90865 6.08134C4.23445 4.88677 5.21182 4.12659 6.51499 4.12659H17.1575ZM17.1575 3.25781H6.51499C4.88603 3.25781 3.47426 4.34379 3.03988 5.97274L2.27969 9.23066L2.0625 10.3166H3.14847H20.7412H21.9358L21.61 9.23066L20.6326 5.97274C20.0897 4.23519 18.6779 3.25781 17.1575 3.25781Z" fill="#4D5051"/>
<path d="M4.45236 6.41021C4.66956 5.43283 5.53834 4.78125 6.51571 4.78125H17.1582C18.1356 4.78125 19.0044 5.43283 19.2216 6.30161L19.9818 8.90795H3.80078L4.45236 6.41021Z" fill="#D1D1D2"/>
<path d="M21.1765 10.2047C22.2624 10.2047 23.1312 11.0735 23.1312 12.1595V17.6979C23.1312 17.9151 22.914 18.1323 22.6968 18.1323H1.30317C1.08597 18.1323 0.868778 17.9151 0.868778 17.6979V12.1595C0.868778 11.0735 1.73756 10.2047 2.82353 10.2047H21.1765ZM21.1765 9.33594H2.82353C1.30317 9.33594 0 10.6391 0 12.1595V17.6979C0 18.4581 0.651584 19.0011 1.30317 19.0011H22.6968C23.457 19.0011 24 18.3495 24 17.6979V12.1595C24 10.6391 22.8054 9.33594 21.1765 9.33594Z" fill="#4D5051"/>
<path d="M1.41016 17.5916V12.1618C1.41016 11.4016 2.06174 10.75 2.82192 10.75H21.1749C21.935 10.75 22.5866 11.4016 22.5866 12.1618V17.5916H1.41016Z" fill="#D1D1D2"/>
<path d="M2.17188 14.7727V14.0125C2.17188 13.7953 2.38907 13.5781 2.60626 13.5781H4.88681C5.104 13.5781 5.3212 13.7953 5.3212 14.0125V14.7727C5.3212 14.9899 5.104 15.2071 4.88681 15.2071H2.49767C2.28047 15.2071 2.17188 14.9899 2.17188 14.7727Z" fill="white" stroke="#4D5051" stroke-width="0.5126" stroke-miterlimit="10"/>
<path d="M7.82031 16.1829V12.7078C7.82031 12.4906 8.03751 12.2734 8.2547 12.2734H15.8565C16.0737 12.2734 16.2909 12.4906 16.2909 12.7078V16.1829C16.2909 16.4001 16.0737 16.6173 15.8565 16.6173H8.2547C8.03751 16.5087 7.82031 16.4001 7.82031 16.1829Z" fill="white" stroke="#4D5051" stroke-width="0.5126" stroke-miterlimit="10"/>
<path d="M18.7891 14.7727V14.0125C18.7891 13.7953 19.0063 13.5781 19.2235 13.5781H21.504C21.7212 13.5781 21.9384 13.7953 21.9384 14.0125V14.7727C21.9384 14.9899 21.7212 15.2071 21.504 15.2071H19.2235C18.8977 15.2071 18.7891 14.9899 18.7891 14.7727Z" fill="white" stroke="#4D5051" stroke-width="0.5126" stroke-miterlimit="10"/>
<path d="M15.7479 3.58371H7.82031L8.2547 0H15.2049L15.7479 3.58371Z" fill="#4D5051"/>
<path d="M9.77268 0.974229H9.12109V0.648438C9.66408 0.648438 10.0985 0.648438 10.6415 0.648438V0.974229H10.0985V2.49459H9.77268V0.974229Z" fill="#D1D1D2"/>
<path d="M11.5118 1.19531H11.8375V2.49848H11.5118V2.28129C11.4032 2.38988 11.186 2.49848 11.0774 2.49848C10.643 2.49848 10.4258 2.28129 10.4258 1.8469C10.4258 1.41251 10.7516 1.19531 11.0774 1.19531C11.2946 1.19531 11.4032 1.30391 11.5118 1.41251V1.19531ZM10.7516 1.8469C10.7516 2.06409 10.9688 2.28129 11.186 2.28129C11.7289 2.28129 11.7289 1.5211 11.186 1.5211C10.9688 1.5211 10.7516 1.6297 10.7516 1.8469Z" fill="#D1D1D2"/>
<path d="M12.9219 1.19531H13.3563L12.9219 1.8469L13.3563 2.49848H12.9219L12.5961 2.06409L12.2703 2.49848H11.8359L12.2703 1.8469L11.8359 1.19531H12.2703L12.4875 1.6297L12.9219 1.19531Z" fill="#D1D1D2"/>
<path d="M13.8992 0.866021C13.8992 1.08322 13.5734 1.08322 13.5734 0.866021C13.4648 0.648826 13.8992 0.648826 13.8992 0.866021ZM13.4648 1.19181V2.49498H13.7906V1.19181H13.4648Z" fill="#D1D1D2"/>
</g>
<defs>
<clipPath id="clip0_0_199">
<rect width="24" height="22.2624" fill="white"/>
</clipPath>
</defs>
</svg>
