<svg width="17" height="24" viewBox="0 0 17 24" fill="none" xmlns="http://www.w3.org/2000/svg">
<path d="M0.402344 19.5404V6.17329C0.402344 5.36316 0.908673 4.6543 1.61753 4.24924L8.80741 0.603666C10.3264 -0.105194 12.1492 0.907464 12.1492 2.62898V4.45177" stroke="#4D5051" stroke-width="0.75524" stroke-miterlimit="10"/>
<path d="M14.1772 4.857C15.1899 4.857 16 5.66713 16 6.67979V21.2621C16 22.2747 15.1899 23.0848 14.1772 23.0848H2.63291C1.62025 23.0848 0.810127 22.2747 0.810127 21.2621V6.78105C0.810127 5.76839 1.62025 4.95827 2.63291 4.95827H14.1772M14.1772 4.04688H2.63291C1.21519 4.04688 0 5.26206 0 6.78105V21.3633C0 22.8823 1.21519 23.9962 2.63291 23.9962H14.1772C15.6962 23.9962 16.8101 22.7811 16.8101 21.3633V6.78105C16.8101 5.26206 15.5949 4.04688 14.1772 4.04688Z" fill="#4D5051"/>
<path d="M2.63286 22.6839C1.924 22.6839 1.31641 22.0763 1.31641 21.3675V6.78521C1.31641 6.07634 1.924 5.46875 2.63286 5.46875H14.1772C14.886 5.46875 15.4936 6.07634 15.4936 6.78521V21.3675C15.4936 22.0763 14.886 22.6839 14.1772 22.6839H2.63286Z" fill="#D1D1D2"/>
<path d="M6.27734 16.7042V13.97C6.27734 12.7548 7.29 11.7422 8.50519 11.7422C9.72038 11.7422 10.733 12.7548 10.733 13.97V16.7042" fill="white"/>
<path d="M6.27734 16.7042V13.97C6.27734 12.7548 7.29 11.7422 8.50519 11.7422C9.72038 11.7422 10.733 12.7548 10.733 13.97V16.7042" stroke="#4D5051" stroke-width="0.62519" stroke-miterlimit="10"/>
<path d="M8.50549 12.7532C7.39156 12.7532 6.37891 11.8418 6.37891 10.6266C6.37891 9.51266 7.2903 8.5 8.50549 8.5C9.61941 8.5 10.6321 9.41139 10.6321 10.6266C10.6321 11.8418 9.61941 12.7532 8.50549 12.7532Z" fill="white"/>
<path d="M8.5046 8.90417C9.51726 8.90417 10.2261 9.7143 10.2261 10.6257C10.2261 11.6383 9.41599 12.3472 8.5046 12.3472C7.59321 12.3472 6.78308 11.5371 6.78308 10.6257C6.68181 9.7143 7.49194 8.90417 8.5046 8.90417ZM8.5046 8.19531C7.18814 8.19531 6.07422 9.30924 6.07422 10.6257C6.07422 11.9421 7.18814 13.0561 8.5046 13.0561C9.82105 13.0561 10.935 11.9421 10.935 10.6257C10.935 9.30924 9.82105 8.19531 8.5046 8.19531Z" fill="#4D5051"/>
<path d="M3.74609 16.8047H13.2651" stroke="#4D5051" stroke-width="0.62519" stroke-miterlimit="10" stroke-linecap="round"/>
<path d="M4.86328 18.1172H12.1544" stroke="#4D5051" stroke-width="0.545266" stroke-miterlimit="10" stroke-linecap="round"/>
<path d="M6.27734 19.2344H10.733" stroke="#4D5051" stroke-width="0.424312" stroke-miterlimit="10" stroke-linecap="round"/>
</svg>
